<svg width="353" height="353" viewBox="0 0 353 353" fill="none" xmlns="http://www.w3.org/2000/svg">
<circle cx="176.213" cy="176.63" r="176.071" fill="#007BFC"/>
<path opacity="0.36" d="M150.903 38.623L125.701 7.77553C207.675 -13.0066 265.692 20.4954 284.454 40.2192C261.875 49.0544 258.564 70.3407 260.148 84.2056C260.638 88.4937 263.196 92.1722 266.59 94.8387L294.81 117.012C299.244 120.495 302.001 125.689 302.403 131.313L304.363 158.75C304.552 161.401 305.834 163.853 307.732 165.715C323.102 180.789 319.789 193.774 312.94 202.014C308.364 207.519 300.882 209.074 293.724 209.074H274.701C270.225 209.074 266.295 212.048 265.078 216.354L250.155 269.159C249.013 273.198 249.505 277.524 251.523 281.204L272.908 320.201C204.789 369.847 122.334 346.659 89.6213 328.86L111.974 267.061C113.304 263.385 116.652 260.821 120.547 260.497L141.457 258.754C145.603 258.409 148.793 254.943 148.793 250.782V194.048C148.793 190.333 145.89 187.265 142.181 187.059L77.7698 183.48C73.6123 183.249 70.033 180.466 68.7846 176.494L57.5068 140.61C56.0489 135.971 58.1392 130.956 62.4603 128.726L92.6473 113.145C96.7885 111.008 101.857 112.014 104.868 115.572L126.9 141.61C129.908 145.165 133.654 148.202 138.184 149.282C152.995 152.812 160.263 143.902 163.17 135.28C164.682 130.794 163.751 125.963 161.993 121.568L145.744 80.9451C144.914 78.87 144.803 76.5767 145.429 74.4312L152.945 48.6625C153.959 45.184 153.196 41.429 150.903 38.623Z" fill="#A5D1FF" fill-opacity="0.5"/>
</svg>
